<?xml version="1.0" encoding="UTF-8" standalone="no"?>
<svg
   xmlns:dc="http://purl.org/dc/elements/1.1/"
   xmlns:cc="http://creativecommons.org/ns#"
   xmlns:rdf="http://www.w3.org/1999/02/22-rdf-syntax-ns#"
   xmlns:svg="http://www.w3.org/2000/svg"
   xmlns="http://www.w3.org/2000/svg"
   xmlns:sodipodi="http://sodipodi.sourceforge.net/DTD/sodipodi-0.dtd"
   xmlns:inkscape="http://www.inkscape.org/namespaces/inkscape"
   width="30mm"
   height="40mm"
   viewBox="0 0 30 40"
   version="1.1"
   id="svg8"
   inkscape:version="1.0.2-2 (e86c870879, 2021-01-15)"
   sodipodi:docname="flecha.svg">
  <defs
     id="defs2" />
  <sodipodi:namedview
     id="base"
     pagecolor="#ffffff"
     bordercolor="#666666"
     borderopacity="1.0"
     inkscape:pageopacity="0.0"
     inkscape:pageshadow="2"
     inkscape:zoom="1.979899"
     inkscape:cx="93.096089"
     inkscape:cy="90.208153"
     inkscape:document-units="mm"
     inkscape:current-layer="layer1"
     inkscape:document-rotation="0"
     showgrid="false"
     inkscape:window-width="1258"
     inkscape:window-height="728"
     inkscape:window-x="92"
     inkscape:window-y="0"
     inkscape:window-maximized="0" />
  <metadata
     id="metadata5">
    <rdf:RDF>
      <cc:Work
         rdf:about="">
        <dc:format>image/svg+xml</dc:format>
        <dc:type
           rdf:resource="http://purl.org/dc/dcmitype/StillImage" />
        <dc:title></dc:title>
      </cc:Work>
    </rdf:RDF>
  </metadata>
  <g
     inkscape:label="Capa 1"
     inkscape:groupmode="layer"
     id="layer1">
    <g
       id="g477"
       transform="matrix(-0.03213806,0.06828701,0.06086566,0.03605666,8.6287798,0.85920521)"
       style="display:inline;fill:#000000;stroke-width:117.089;stroke-miterlimit:4;stroke-dasharray:none">
      <g
         id="g403"
         style="fill:#000000;stroke-width:117.089;stroke-miterlimit:4;stroke-dasharray:none">
        <g
           id="g401"
           style="fill:#000000;stroke-width:117.089;stroke-miterlimit:4;stroke-dasharray:none">
          <path
             d="m 44.982,3.271 c -3.672,2.448 -8.568,3.06 -11.628,6.12 -2.448,1.836 -2.448,5.508 0,7.344 2.448,1.224 5.508,0 7.956,-0.612 1.836,-0.612 2.448,-1.836 2.448,-3.672 1.836,-1.224 3.672,-2.448 4.896,-4.284 2.448,-2.448 -0.612,-7.344 -3.672,-4.896 z"
             id="path365"
             style="fill:#000000;stroke-width:117.089;stroke-miterlimit:4;stroke-dasharray:none" />
          <path
             d="m 20.502,39.379 c -3.672,3.06 -7.344,6.732 -10.404,10.404 -3.06,3.672 -6.732,8.568 -6.732,12.852 0,2.448 3.06,3.672 4.284,1.836 3.06,-3.06 3.672,-7.956 6.12,-11.628 2.448,-4.284 5.508,-7.344 9.18,-11.016 1.224,-1.836 -1.224,-3.672 -2.448,-2.448 z"
             id="path367"
             style="fill:#000000;stroke-width:117.089;stroke-miterlimit:4;stroke-dasharray:none" />
          <path
             d="M 5.814,94.459 C 4.59,89.563 3.978,84.055 3.978,78.547 c 0,-1.836 -3.06,-1.836 -3.06,0 0,7.344 -3.672,22.032 3.672,26.928 1.224,1.224 3.06,-0.612 3.06,-1.836 0,-3.06 -1.224,-6.12 -1.836,-9.18 z"
             id="path369"
             style="fill:#000000;stroke-width:117.089;stroke-miterlimit:4;stroke-dasharray:none" />
          <path
             d="m 40.086,117.715 c -9.792,1.224 -18.36,3.06 -27.54,-1.836 -1.224,-0.612 -1.836,0.612 -0.612,1.224 9.18,6.732 19.584,9.792 29.988,4.284 2.448,-1.224 0,-4.284 -1.836,-3.672 z"
             id="path371"
             style="fill:#000000;stroke-width:117.089;stroke-miterlimit:4;stroke-dasharray:none" />
          <path
             d="m 84.15,85.891 c -4.896,1.836 -8.568,5.508 -12.852,8.568 -4.896,3.672 -9.18,7.344 -13.464,11.628 -1.224,1.224 0.612,3.672 2.448,2.448 3.672,-3.672 7.956,-6.12 12.24,-9.18 4.284,-3.06 9.792,-5.508 13.464,-9.18 1.836,-1.836 0.612,-5.508 -1.836,-4.284 z"
             id="path373"
             style="fill:#000000;stroke-width:117.089;stroke-miterlimit:4;stroke-dasharray:none" />
          <path
             d="m 125.154,41.827 c -11.016,4.284 -21.42,14.688 -29.376,23.256 -1.224,1.836 0.612,3.672 2.448,2.448 4.896,-4.284 10.404,-8.568 15.912,-12.24 4.284,-3.06 9.18,-5.508 12.852,-9.18 1.836,-2.448 0,-4.896 -1.836,-4.284 z"
             id="path375"
             style="fill:#000000;stroke-width:117.089;stroke-miterlimit:4;stroke-dasharray:none" />
          <path
             d="m 179.622,19.183 c -11.016,-0.612 -22.032,3.672 -31.824,7.344 -1.836,0.612 -1.224,3.06 0.612,3.06 10.404,-3.06 20.808,-4.284 31.212,-4.896 3.06,-0.612 3.06,-5.508 0,-5.508 z"
             id="path377"
             style="fill:#000000;stroke-width:117.089;stroke-miterlimit:4;stroke-dasharray:none" />
          <path
             d="m 220.626,39.379 c -3.06,-3.672 -7.344,-7.344 -11.016,-10.404 -3.06,-2.448 -6.732,1.224 -4.284,4.284 3.061,3.06 6.12,6.732 9.18,10.404 3.061,3.672 6.12,9.18 10.404,12.24 1.836,1.224 4.284,-0.612 3.672,-3.06 0,-4.896 -4.284,-9.792 -7.956,-13.464 z"
             id="path379"
             style="fill:#000000;stroke-width:117.089;stroke-miterlimit:4;stroke-dasharray:none" />
          <path
             d="m 232.254,72.427 c 0,-2.448 -4.283,-2.448 -4.283,0 -0.612,6.12 -1.836,11.628 -3.061,17.748 -1.224,5.508 -4.284,11.016 -4.284,17.136 0,3.06 4.284,4.284 5.509,1.224 5.508,-10.404 6.731,-25.092 6.119,-36.108 z"
             id="path381"
             style="fill:#000000;stroke-width:117.089;stroke-miterlimit:4;stroke-dasharray:none" />
          <path
             d="m 205.938,134.239 c -3.061,4.284 -6.12,8.568 -9.181,12.852 -2.447,4.284 -6.731,8.568 -7.344,13.464 0,2.448 2.448,3.06 4.284,2.448 4.284,-1.836 6.12,-7.344 7.956,-11.016 3.06,-4.896 5.508,-10.404 8.568,-15.3 1.225,-3.06 -2.447,-4.896 -4.283,-2.448 z"
             id="path383"
             style="fill:#000000;stroke-width:117.089;stroke-miterlimit:4;stroke-dasharray:none" />
          <path
             d="m 175.338,178.915 c -5.508,4.896 -9.792,9.792 -13.464,15.3 -3.672,5.508 -8.568,13.464 -7.344,20.196 0.612,3.06 3.672,3.672 5.508,1.224 3.06,-4.284 3.672,-10.404 5.508,-15.3 2.448,-7.344 6.732,-14.076 11.628,-20.196 1.224,-0.612 -0.612,-2.448 -1.836,-1.224 z"
             id="path385"
             style="fill:#000000;stroke-width:117.089;stroke-miterlimit:4;stroke-dasharray:none" />
          <path
             d="m 140.454,238.891 c -5.508,4.896 -9.792,10.404 -13.464,17.136 -3.672,6.732 -7.956,15.301 -6.732,22.645 0.612,2.448 4.284,2.448 4.896,0.612 3.672,-5.509 3.672,-12.853 6.12,-18.973 2.448,-6.731 6.732,-13.464 11.628,-19.584 1.224,-1.224 -0.612,-3.672 -2.448,-1.836 z"
             id="path387"
             style="fill:#000000;stroke-width:117.089;stroke-miterlimit:4;stroke-dasharray:none" />
          <path
             d="m 139.842,332.526 c -4.284,-2.447 -7.956,-4.283 -11.016,-7.955 -3.06,-4.896 -4.284,-12.24 -4.284,-17.748 0,-1.837 -3.06,-1.837 -3.06,0 -1.224,11.628 1.224,31.823 17.136,31.212 2.448,-0.612 3.672,-4.284 1.224,-5.509 z"
             id="path389"
             style="fill:#000000;stroke-width:117.089;stroke-miterlimit:4;stroke-dasharray:none" />
          <path
             d="m 204.714,353.947 c -6.731,-0.612 -13.464,0.611 -20.195,0.611 -8.569,-0.611 -16.525,-3.06 -23.257,-7.956 -1.224,-0.611 -1.836,1.225 -1.224,1.836 12.852,9.792 30.601,18.36 46.513,11.628 3.059,-1.836 1.223,-6.119 -1.837,-6.119 z"
             id="path391"
             style="fill:#000000;stroke-width:117.089;stroke-miterlimit:4;stroke-dasharray:none" />
          <path
             d="m 256.734,312.331 c -4.284,2.448 -7.956,6.12 -12.852,9.18 -4.284,2.448 -9.181,3.672 -14.076,4.284 -3.061,0.612 -3.061,4.896 0,4.896 11.016,0.612 25.092,-3.06 31.212,-13.464 2.449,-3.06 -1.224,-6.121 -4.284,-4.896 z"
             id="path393"
             style="fill:#000000;stroke-width:117.089;stroke-miterlimit:4;stroke-dasharray:none" />
          <path
             d="m 281.826,275.61 c -7.956,7.956 -16.523,16.524 -22.032,26.316 -1.836,3.061 2.448,4.896 4.284,2.448 6.732,-8.568 17.748,-14.688 22.645,-25.092 0.611,-3.059 -2.449,-6.119 -4.897,-3.672 z"
             id="path395"
             style="fill:#000000;stroke-width:117.089;stroke-miterlimit:4;stroke-dasharray:none" />
          <path
             d="m 327.727,276.223 c -1.836,-3.672 -6.732,-6.12 -10.404,-7.956 -4.284,-1.836 -9.18,-2.447 -14.076,-2.447 -3.06,0 -3.06,4.283 0,4.283 4.284,0 7.956,1.225 11.628,3.061 3.061,1.836 5.509,4.896 8.568,6.731 2.448,1.835 5.507,-1.224 4.284,-3.672 z"
             id="path397"
             style="fill:#000000;stroke-width:117.089;stroke-miterlimit:4;stroke-dasharray:none" />
          <path
             d="m 364.446,300.091 c -8.568,-14.076 -14.076,-29.988 -21.42,-44.676 -3.672,-6.732 -13.464,-0.612 -10.404,6.12 5.508,12.239 10.404,25.092 17.748,36.72 -5.508,0.612 -11.016,1.224 -17.136,1.836 -2.448,0.612 -6.732,0.612 -8.568,3.061 l -0.611,0.611 c 0,0 -0.612,0 -0.612,0.612 -1.224,1.224 0,3.672 1.224,3.672 v 0 c 0.612,0.612 1.225,0.612 2.448,0.612 3.061,0.611 6.12,0 9.792,0 7.956,-0.612 15.3,-1.225 23.256,-0.612 3.671,0.612 6.119,-4.284 4.283,-7.956 z"
             id="path399"
             style="fill:#000000;stroke-width:117.089;stroke-miterlimit:4;stroke-dasharray:none" />
        </g>
      </g>
      <g
         id="g405"
         style="fill:#000000;stroke-width:117.089;stroke-miterlimit:4;stroke-dasharray:none" />
      <g
         id="g407"
         style="fill:#000000;stroke-width:117.089;stroke-miterlimit:4;stroke-dasharray:none" />
      <g
         id="g409"
         style="fill:#000000;stroke-width:117.089;stroke-miterlimit:4;stroke-dasharray:none" />
      <g
         id="g411"
         style="fill:#000000;stroke-width:117.089;stroke-miterlimit:4;stroke-dasharray:none" />
      <g
         id="g413"
         style="fill:#000000;stroke-width:117.089;stroke-miterlimit:4;stroke-dasharray:none" />
      <g
         id="g415"
         style="fill:#000000;stroke-width:117.089;stroke-miterlimit:4;stroke-dasharray:none" />
      <g
         id="g417"
         style="fill:#000000;stroke-width:117.089;stroke-miterlimit:4;stroke-dasharray:none" />
      <g
         id="g419"
         style="fill:#000000;stroke-width:117.089;stroke-miterlimit:4;stroke-dasharray:none" />
      <g
         id="g421"
         style="fill:#000000;stroke-width:117.089;stroke-miterlimit:4;stroke-dasharray:none" />
      <g
         id="g423"
         style="fill:#000000;stroke-width:117.089;stroke-miterlimit:4;stroke-dasharray:none" />
      <g
         id="g425"
         style="fill:#000000;stroke-width:117.089;stroke-miterlimit:4;stroke-dasharray:none" />
      <g
         id="g427"
         style="fill:#000000;stroke-width:117.089;stroke-miterlimit:4;stroke-dasharray:none" />
      <g
         id="g429"
         style="fill:#000000;stroke-width:117.089;stroke-miterlimit:4;stroke-dasharray:none" />
      <g
         id="g431"
         style="fill:#000000;stroke-width:117.089;stroke-miterlimit:4;stroke-dasharray:none" />
      <g
         id="g433"
         style="fill:#000000;stroke-width:117.089;stroke-miterlimit:4;stroke-dasharray:none" />
    </g>
  </g>
</svg>
