<?xml version="1.0" encoding="UTF-8" standalone="no"?>
<svg
   xmlns:dc="http://purl.org/dc/elements/1.1/"
   xmlns:cc="http://creativecommons.org/ns#"
   xmlns:rdf="http://www.w3.org/1999/02/22-rdf-syntax-ns#"
   xmlns:svg="http://www.w3.org/2000/svg"
   xmlns="http://www.w3.org/2000/svg"
   xmlns:sodipodi="http://sodipodi.sourceforge.net/DTD/sodipodi-0.dtd"
   xmlns:inkscape="http://www.inkscape.org/namespaces/inkscape"
   width="20mm"
   height="20mm"
   viewBox="0 0 20 20"
   version="1.1"
   id="svg8"
   inkscape:version="1.0.2-2 (e86c870879, 2021-01-15)"
   sodipodi:docname="instagram.svg">
  <defs
     id="defs2" />
  <sodipodi:namedview
     id="base"
     pagecolor="#ffffff"
     bordercolor="#666666"
     borderopacity="1.0"
     inkscape:pageopacity="0.0"
     inkscape:pageshadow="2"
     inkscape:zoom="2.8"
     inkscape:cx="68.343744"
     inkscape:cy="78.983379"
     inkscape:document-units="mm"
     inkscape:current-layer="layer1"
     inkscape:document-rotation="0"
     showgrid="false"
     inkscape:window-width="1258"
     inkscape:window-height="728"
     inkscape:window-x="92"
     inkscape:window-y="0"
     inkscape:window-maximized="0" />
  <metadata
     id="metadata5">
    <rdf:RDF>
      <cc:Work
         rdf:about="">
        <dc:format>image/svg+xml</dc:format>
        <dc:type
           rdf:resource="http://purl.org/dc/dcmitype/StillImage" />
        <dc:title />
      </cc:Work>
    </rdf:RDF>
  </metadata>
  <g
     inkscape:label="Capa 1"
     inkscape:groupmode="layer"
     id="layer1">
    <g
       id="g2923"
       transform="matrix(0.03330719,0,0,0.03330719,1.5842226,1.3952336)"
       style="display:inline;fill:#000000">
      <path
         d="m 301,256 c 0,24.85156 -20.14844,45 -45,45 -24.85156,0 -45,-20.14844 -45,-45 0,-24.85156 20.14844,-45 45,-45 24.85156,0 45,20.14844 45,45 z m 0,0"
         id="path2906"
         style="fill:#000000" />
      <path
         d="M 332,120 H 180 c -33.08594,0 -60,26.91406 -60,60 v 152 c 0,33.08594 26.91406,60 60,60 h 152 c 33.08594,0 60,-26.91406 60,-60 V 180 c 0,-33.08594 -26.91406,-60 -60,-60 z m -76,211 c -41.35547,0 -75,-33.64453 -75,-75 0,-41.35547 33.64453,-75 75,-75 41.35547,0 75,33.64453 75,75 0,41.35547 -33.64453,75 -75,75 z m 86,-146 c -8.28516,0 -15,-6.71484 -15,-15 0,-8.28516 6.71484,-15 15,-15 8.28516,0 15,6.71484 15,15 0,8.28516 -6.71484,15 -15,15 z m 0,0"
         id="path2908"
         style="fill:#000000" />
      <path
         d="M 377,0 H 135 C 60.5625,0 0,60.5625 0,135 v 242 c 0,74.4375 60.5625,135 135,135 h 242 c 74.4375,0 135,-60.5625 135,-135 V 135 C 512,60.5625 451.4375,0 377,0 Z m 45,332 c 0,49.625 -40.375,90 -90,90 H 180 C 130.375,422 90,381.625 90,332 V 180 c 0,-49.625 40.375,-90 90,-90 h 152 c 49.625,0 90,40.375 90,90 z m 0,0"
         id="path2910"
         style="fill:#000000" />
    </g>
  </g>
</svg>
