<?xml version="1.0" encoding="UTF-8" standalone="no"?>
<svg
   xmlns:dc="http://purl.org/dc/elements/1.1/"
   xmlns:cc="http://creativecommons.org/ns#"
   xmlns:rdf="http://www.w3.org/1999/02/22-rdf-syntax-ns#"
   xmlns:svg="http://www.w3.org/2000/svg"
   xmlns="http://www.w3.org/2000/svg"
   xmlns:sodipodi="http://sodipodi.sourceforge.net/DTD/sodipodi-0.dtd"
   xmlns:inkscape="http://www.inkscape.org/namespaces/inkscape"
   width="20mm"
   height="20mm"
   viewBox="0 0 20 20"
   version="1.1"
   id="svg8"
   inkscape:version="1.0.2-2 (e86c870879, 2021-01-15)"
   sodipodi:docname="twiter.svg">
  <defs
     id="defs2" />
  <sodipodi:namedview
     id="base"
     pagecolor="#ffffff"
     bordercolor="#666666"
     borderopacity="1.0"
     inkscape:pageopacity="0.0"
     inkscape:pageshadow="2"
     inkscape:zoom="2.8"
     inkscape:cx="68.343744"
     inkscape:cy="78.983379"
     inkscape:document-units="mm"
     inkscape:current-layer="layer1"
     inkscape:document-rotation="0"
     showgrid="false"
     inkscape:window-width="1258"
     inkscape:window-height="728"
     inkscape:window-x="92"
     inkscape:window-y="0"
     inkscape:window-maximized="0" />
  <metadata
     id="metadata5">
    <rdf:RDF>
      <cc:Work
         rdf:about="">
        <dc:format>image/svg+xml</dc:format>
        <dc:type
           rdf:resource="http://purl.org/dc/dcmitype/StillImage" />
        <dc:title />
      </cc:Work>
    </rdf:RDF>
  </metadata>
  <g
     inkscape:label="Capa 1"
     inkscape:groupmode="layer"
     id="layer1">
    <path
       d="m 10.20535,1.0293031 c -5.06702,0 -9.17605,4.10904 -9.17605,9.1760499 0,5.06702 4.10903,9.17606 9.17605,9.17606 5.06702,0 9.17606,-4.10904 9.17606,-9.17606 0,-5.0670099 -4.10904,-9.1760499 -9.17606,-9.1760499 z m 4.18969,7.15452 c 0.004,0.0903 0.006,0.18103 0.006,0.27218 0,2.7830899 -2.11843,5.9923899 -5.99252,5.9925299 h 1e-4 -1e-4 c -1.18943,0 -2.29626,-0.34864 -3.22834,-0.94609 0.1648,0.0195 0.33254,0.0292 0.50237,0.0292 0.98684,0 1.89497,-0.3366 2.61591,-0.90155 -0.922,-0.0171 -1.69936,-0.62602 -1.96763,-1.46289 0.12841,0.0247 0.26042,0.0381 0.39583,0.0381 0.19224,0 0.37846,-0.0258 0.55543,-0.0743 -0.96373,-0.19294 -1.6897,-1.04466 -1.6897,-2.0645399 0,-0.01 0,-0.0181 3e-4,-0.0269 0.28381,0.1578 0.60837,0.25272 0.95392,0.26337 -0.56553,-0.37734 -0.93727,-1.02239 -0.93727,-1.75315 0,-0.38587 0.10428,-0.7474 0.28522,-1.05864 1.03863,1.27441 2.59084,2.11255 4.34132,2.20062 -0.0362,-0.1543 -0.0547,-0.31504 -0.0547,-0.48025 0,-1.16269 0.94328,-2.10598 2.10639,-2.10598 0.60585,0 1.15304,0.2561 1.53737,0.6655 0.47984,-0.0947 0.93041,-0.26996 1.33742,-0.5112 -0.1575,0.49159 -0.4913,0.90408 -0.92619,1.16492 0.42607,-0.051 0.83211,-0.16394 1.20946,-0.33169 -0.28186,0.42242 -0.63932,0.79348 -1.05055,1.09073 z m 0,0"
       id="path2925"
       style="display:inline;fill:#000000;stroke-width:0.035844" />
  </g>
</svg>
