<?xml version="1.0" encoding="UTF-8" standalone="no"?>
<svg
   xmlns:dc="http://purl.org/dc/elements/1.1/"
   xmlns:cc="http://creativecommons.org/ns#"
   xmlns:rdf="http://www.w3.org/1999/02/22-rdf-syntax-ns#"
   xmlns:svg="http://www.w3.org/2000/svg"
   xmlns="http://www.w3.org/2000/svg"
   xmlns:sodipodi="http://sodipodi.sourceforge.net/DTD/sodipodi-0.dtd"
   xmlns:inkscape="http://www.inkscape.org/namespaces/inkscape"
   width="50mm"
   height="50mm"
   viewBox="0 0 50 50"
   version="1.1"
   id="svg8"
   inkscape:version="1.0.2-2 (e86c870879, 2021-01-15)"
   sodipodi:docname="whatssap.svg">
  <defs
     id="defs2" />
  <sodipodi:namedview
     id="base"
     pagecolor="#ffffff"
     bordercolor="#666666"
     borderopacity="1.0"
     inkscape:pageopacity="0.0"
     inkscape:pageshadow="2"
     inkscape:zoom="0.7"
     inkscape:cx="213.01814"
     inkscape:cy="198.59606"
     inkscape:document-units="mm"
     inkscape:current-layer="layer1"
     inkscape:document-rotation="0"
     showgrid="false"
     inkscape:window-width="1258"
     inkscape:window-height="728"
     inkscape:window-x="26"
     inkscape:window-y="0"
     inkscape:window-maximized="0" />
  <metadata
     id="metadata5">
    <rdf:RDF>
      <cc:Work
         rdf:about="">
        <dc:format>image/svg+xml</dc:format>
        <dc:type
           rdf:resource="http://purl.org/dc/dcmitype/StillImage" />
        <dc:title></dc:title>
      </cc:Work>
    </rdf:RDF>
  </metadata>
  <g
     inkscape:label="Capa 1"
     inkscape:groupmode="layer"
     id="layer1">
    <g
       id="g1423"
       transform="matrix(0.07546069,0,0,0.07546069,5.4580719,5.0748019)"
       style="display:inline;fill:#ffffff">
      <path
         d="M 435.92188,74.351562 C 387.82422,26.433594 323.83984,0.0273438 255.74219,0 187.79688,0 123.71094,26.382812 75.296875,74.289062 26.796875,122.27734 0.0625,186.05078 0,253.62891 v 0.0781 0.0469 c 0.0078125,40.90234 10.753906,82.16406 31.152344,119.82812 L 0.699219,512 140.71094,480.15234 c 35.46094,17.8711 75.02734,27.29297 114.93359,27.3086 h 0.10156 c 67.9336,0 132.01954,-26.38672 180.44141,-74.29688 48.54297,-48.02734 75.28906,-111.71875 75.32031,-179.33984 0.0195,-67.14453 -26.82031,-130.88281 -75.58593,-179.472658 z M 255.74219,467.5 h -0.0898 c -35.83203,-0.0156 -71.33593,-9.01172 -102.66796,-26.02344 l -6.6211,-3.59375 -93.101561,21.17578 20.222656,-91.90625 -3.898437,-6.72265 c -19.382813,-33.42578 -29.625,-70.32422 -29.625,-106.71875 0.07422,-117.80078 96.863282,-213.750002 215.773442,-213.750002 57.44531,0.02344 111.42187,22.292968 151.98437,62.699222 41.17578,41.03125 63.84375,94.71093 63.82422,151.15234 C 471.49609,371.64063 374.6875,467.5 255.74219,467.5 Z m 0,0"
         fill="url(#b)"
         id="path1409"
         style="fill:#ffffff" />
      <path
         d="m 186.15234,141.86328 h -11.21093 c -3.90235,0 -10.23828,1.46094 -15.59766,7.29297 -5.36328,5.83594 -20.47656,19.94141 -20.47656,48.62891 0,28.6875 20.96484,56.40625 23.88672,60.30078 2.92578,3.89062 40.46875,64.64062 99.92968,88.01172 49.41797,19.42187 59.47657,15.55859 70.19922,14.58593 10.72656,-0.96875 34.61328,-14.10156 39.48828,-27.71484 4.875,-13.61328 4.875,-25.28516 3.41407,-27.72266 -1.46485,-2.42968 -5.36719,-3.88672 -11.21485,-6.80078 -5.85156,-2.91797 -34.52344,-17.26172 -39.88672,-19.21094 -5.36328,-1.9414 -9.26171,-2.91406 -13.16406,2.92579 -3.90234,5.82812 -15.39062,19.3125 -18.80469,23.20312 -3.41015,3.89453 -6.82422,4.38281 -12.67578,1.46484 -5.85156,-2.92578 -24.5,-9.1914 -46.84765,-29.05078 -17.39454,-15.45703 -29.46485,-35.16797 -32.87891,-41.0039 -3.41016,-5.83203 -0.36328,-8.98828 2.57031,-11.89844 2.62891,-2.60938 6.17969,-6.17969 9.10547,-9.58203 2.92188,-3.40625 3.75391,-5.83594 5.70703,-9.72656 1.94922,-3.89063 0.97266,-7.29688 -0.48828,-10.21094 -1.46484,-2.91797 -12.69141,-31.75 -17.89453,-43.28125 h 0.004 c -4.38282,-9.71094 -8.9961,-10.03906 -13.16407,-10.21094 z m 0,0"
         fill="url(#c)"
         id="path1411"
         style="fill:#ffffff" />
    </g>
  </g>
</svg>
